<svg xmlns="http://www.w3.org/2000/svg" xmlns:xlink="http://www.w3.org/1999/xlink" width="44" height="446" viewBox="0 0 44 446"><svg id="car" data-name="Layer 1" viewBox="0 0 44 44" width="44" height="44" y="0"><defs><style>.Graphic-Style-4{fill:url(#linear-gradient)}</style><linearGradient id="linear-gradient" x1="4.31" y1="22.21" x2="39.93" y2="22.21" gradientUnits="userSpaceOnUse"><stop offset="0" stop-color="#6ed344"></stop><stop offset="1" stop-color="#6fbb9b"></stop></linearGradient></defs><title>Icons</title><path class="Graphic-Style-4" d="M39.16 16.93h-2.61a.77.77 0 0 0-.53.21l-.56.53a27.8 27.8 0 0 0-4.11-6.55 5.14 5.14 0 0 0-4-1.89H16.89a5.14 5.14 0 0 0-4 1.89 27.17 27.17 0 0 0-4.12 6.55l-.55-.53a.77.77 0 0 0-.53-.21H5.08a.77.77 0 0 0-.77.77v1.79a.77.77 0 0 0 .72.77l2.69.17A17.13 17.13 0 0 0 7 25.87a7 7 0 0 0 1.18 4.5v4.16a.65.65 0 0 0 .65.65h3a.65.65 0 0 0 .65-.65V32H31.8v2.58a.65.65 0 0 0 .65.65h3a.65.65 0 0 0 .65-.65v-4.2a7 7 0 0 0 1.18-4.5 17.12 17.12 0 0 0-.72-5.44l2.69-.17a.77.77 0 0 0 .72-.77v-1.8a.77.77 0 0 0-.77-.77zm-24.06-4a2.3 2.3 0 0 1 1.79-.85h10.46a2.3 2.3 0 0 1 1.79.85 26.91 26.91 0 0 1 3.06 4.53H12a27.06 27.06 0 0 1 3.08-4.54zm-2.2 15.86c-1.48 0-2.68-.48-2.68-1.66S10.66 25 12.14 25s3.44 1 3.44 2.12-1.2 1.66-2.68 1.66zm12-.24h-5.59A1.54 1.54 0 0 1 17.78 27a.43.43 0 0 1 .43-.43H26a.43.43 0 0 1 .43.43 1.54 1.54 0 0 1-1.54 1.54zm6.41.24c-1.48 0-2.68-.48-2.68-1.66S30.62 25 32.1 25s1.9 1 1.9 2.14-1.2 1.66-2.68 1.66zm0 0"></path></svg><svg id="door" data-name="Layer 1" viewBox="0 0 44 44" width="44" height="44" y="44"><defs><style>.Graphic-Style-4{fill:url(#linear-gradient)}</style><linearGradient id="linear-gradient" x1="11.43" y1="22.7" x2="33.62" y2="22.7" gradientUnits="userSpaceOnUse"><stop offset="0" stop-color="#6ed344"></stop><stop offset="1" stop-color="#6fbb9b"></stop></linearGradient></defs><title>Icons</title><path class="Graphic-Style-4" d="M19.28 5.77v2.46h-7.85v28.89h7.85v2.5l14.32-2.57V8.36zm2.38 15.8a1 1 0 0 1 .87 1.13 1 1 0 0 1-.87 1.13 1 1 0 0 1-.87-1.13 1 1 0 0 1 .87-1.13zm-7.9 13.22V10.56h5.52V34.8h-5.52zm0 0"></path></svg><svg data-name="Слой 1" viewBox="0 0 22.54 31.99" width="22.54" height="31.99" id="marker" y="88"><title>Без названия</title><path d="M11.27.88a10.31 10.31 0 0 1 10.31 9.47 16.41 16.41 0 0 1-1.86 8.34 51.56 51.56 0 0 1-8.15 12.16c-.19.23-.33.44-.63.08-3.73-4.38-7.1-9-9.08-14.46a12.83 12.83 0 0 1-.59-7.93 10.31 10.31 0 0 1 10-7.66zM1.7 11.27a18.69 18.69 0 0 0 1.88 7.22 54 54 0 0 0 7.36 11.16c.23.28.4.26.61 0 .47-.56.95-1.11 1.4-1.69a44.75 44.75 0 0 0 6.66-11 13.63 13.63 0 0 0 1.11-7.4 9.59 9.59 0 0 0-19 1.71z"></path><path d="M11.27 31.62a.9.9 0 0 1-.67-.37c-3.33-3.91-7-8.7-9.17-14.61a13.1 13.1 0 0 1-.66-8.23A10.82 10.82 0 0 1 11.27.38a10.8 10.8 0 0 1 10.8 9.92 17 17 0 0 1-1.91 8.6 51.48 51.48 0 0 1-8.22 12.28 1 1 0 0 1-.72.44zm-.13-1.27l.12.14.13-.15h-.25zM2.2 11.27a18.12 18.12 0 0 0 1.83 7 52 52 0 0 0 7.22 11l.43-.52c.3-.35.59-.7.87-1.07a44.24 44.24 0 0 0 6.59-10.88 13.21 13.21 0 0 0 1.13-7.16 9.09 9.09 0 0 0-18 1.63z"></path><path d="M11.27 32a1.24 1.24 0 0 1-1-.51c-3.31-3.93-7-8.75-9.19-14.72a13.46 13.46 0 0 1-.67-8.46 11.26 11.26 0 0 1 22.08 2 17.26 17.26 0 0 1-1.94 8.78 51.24 51.24 0 0 1-8.28 12.33 1.3 1.3 0 0 1-1 .58zm0-31.25A10.46 10.46 0 0 0 1.13 8.51a12.81 12.81 0 0 0 .65 8c2.13 5.86 5.79 10.62 9.1 14.5a.57.57 0 0 0 .39.24c.15 0 .25-.1.43-.32a50.6 50.6 0 0 0 8.17-12.19 16.62 16.62 0 0 0 1.87-8.4A10.43 10.43 0 0 0 11.27.75zm0 30.25l-.43-.41-.57-.75 1 .16 1-.23zm0-1.18l-.28-.35a52.1 52.1 0 0 1-7.27-11 18.72 18.72 0 0 1-1.87-7.16 9.46 9.46 0 0 1 18.74-1.73 13.44 13.44 0 0 1-1.1 7.33 44.58 44.58 0 0 1-6.64 11c-.27.35-.55.69-.83 1zm-8.7-18.55a18 18 0 0 0 1.8 6.84 51.1 51.1 0 0 0 6.9 10.54l.14-.17c.33-.39.6-.72.87-1.06a44 44 0 0 0 6.53-10.78 12.85 12.85 0 0 0 1.07-6.93 8.72 8.72 0 0 0-17.31 1.56z"></path><path d="M6.52 11.27a4.72 4.72 0 0 1 4.75-4.82 4.81 4.81 0 1 1 0 9.61 4.68 4.68 0 0 1-4.75-4.79zm4.79-4a4 4 0 0 0-4 3.92 4 4 0 0 0 8 .12 4 4 0 0 0-4.04-4.04z"></path><path d="M11.34 16.31h-.07a5.12 5.12 0 0 1-3.68-1.57 4.8 4.8 0 0 1-1.32-3.48A5 5 0 0 1 7.7 7.68a4.9 4.9 0 0 1 3.57-1.48 5 5 0 0 1 5.08 5 4.93 4.93 0 0 1-1.47 3.58 4.89 4.89 0 0 1-3.54 1.53zm-.07-9.61A4.37 4.37 0 0 0 8.06 8a4.52 4.52 0 0 0-1.29 3.24 4.22 4.22 0 0 0 1.18 3.11 4.57 4.57 0 0 0 3.32 1.46 4.59 4.59 0 0 0 4.56-4.57 4.52 4.52 0 0 0-4.56-4.54zm0 8.8a4.25 4.25 0 1 1 0-8.5 4.27 4.27 0 0 1 4.24 4.28 4.06 4.06 0 0 1-1.22 2.89 4.37 4.37 0 0 1-3.02 1.33zm0-8a3.75 3.75 0 0 0 0 7.5 3.86 3.86 0 0 0 2.69-1.16 3.6 3.6 0 0 0 1.08-2.53 3.77 3.77 0 0 0-3.77-3.79z"></path><path d="M11.34 16.56h-.07a5.37 5.37 0 0 1-3.86-1.65 5 5 0 0 1-1.38-3.65 5.35 5.35 0 0 1 1.5-3.76A5.16 5.16 0 0 1 11.27 6a5.31 5.31 0 0 1 5.33 5.26A5.24 5.24 0 0 1 15.04 15a5.18 5.18 0 0 1-3.7 1.56zm-.07-8.79a3.5 3.5 0 0 0 0 7 3.62 3.62 0 0 0 2.52-1.09 3.33 3.33 0 0 0 1-2.35 3.49 3.49 0 0 0-3.52-3.56z"></path><path d="M11.34 16.81h-.07a5.58 5.58 0 0 1-4-1.73 5.27 5.27 0 0 1-1.45-3.83 5.54 5.54 0 0 1 1.57-3.92 5.37 5.37 0 0 1 3.88-1.63 5.56 5.56 0 0 1 5.6 5.5 5.58 5.58 0 0 1-5.49 5.61zM11.27 6.2a4.91 4.91 0 0 0-3.55 1.48 5 5 0 0 0-1.45 3.58 4.78 4.78 0 0 0 1.31 3.48 5.12 5.12 0 0 0 3.69 1.57h.08a4.89 4.89 0 0 0 3.52-1.51 4.93 4.93 0 0 0 1.47-3.58 5.07 5.07 0 0 0-5.07-5.02zm0 8.8a3.74 3.74 0 1 1 0-7.48 3.74 3.74 0 0 1 3.75 3.79 3.63 3.63 0 0 1-1.07 2.53A3.9 3.9 0 0 1 11.27 15zm0-7.23V8a3.22 3.22 0 0 0-2.32 5.5 3.3 3.3 0 0 0 2.29 1 3.33 3.33 0 0 0 2.36-1 3.05 3.05 0 0 0 .93-2.16A3.24 3.24 0 0 0 11.27 8z"></path></svg><svg data-name="Слой 1" viewBox="0 0 32 32" width="32" height="32" id="marker1" y="120"><title>watch</title><path d="M16 .88a10.31 10.31 0 0 1 10.31 9.47 16.41 16.41 0 0 1-1.86 8.34 51.56 51.56 0 0 1-8.15 12.16c-.19.23-.33.44-.63.08-3.73-4.38-7.1-9-9.08-14.46A12.83 12.83 0 0 1 6 8.54 10.31 10.31 0 0 1 16 .88zM6.43 11.27a18.69 18.69 0 0 0 1.88 7.22 54 54 0 0 0 7.36 11.16c.23.28.4.26.61 0 .47-.56.95-1.11 1.4-1.69a44.75 44.75 0 0 0 6.66-11 13.63 13.63 0 0 0 1.11-7.4 9.59 9.59 0 0 0-19 1.71z"></path><path d="M16 31.62a.9.9 0 0 1-.67-.37c-3.33-3.91-7-8.7-9.17-14.61a13.1 13.1 0 0 1-.66-8.23A10.82 10.82 0 0 1 16 .38a10.8 10.8 0 0 1 10.8 9.92 17 17 0 0 1-1.91 8.6 51.48 51.48 0 0 1-8.22 12.28 1 1 0 0 1-.72.44zm-.13-1.27l.12.14.13-.15h-.25zM6.93 11.27a18.12 18.12 0 0 0 1.83 7 52 52 0 0 0 7.22 11l.43-.52c.3-.35.59-.7.87-1.07a44.24 44.24 0 0 0 6.59-10.88A13.21 13.21 0 0 0 25 9.64a9.09 9.09 0 0 0-18 1.63z"></path><path d="M11.25 11.27A4.72 4.72 0 0 1 16 6.45a4.81 4.81 0 1 1 0 9.61 4.68 4.68 0 0 1-4.75-4.79zm4.79-4a4 4 0 0 0-4 3.92 4 4 0 0 0 8 .12A4 4 0 0 0 16 7.27z"></path><path d="M16.07 16.56H16a5.37 5.37 0 0 1-3.86-1.65 5 5 0 0 1-1.38-3.65 5.35 5.35 0 0 1 1.5-3.76A5.16 5.16 0 0 1 16 6a5.31 5.31 0 0 1 5.33 5.26A5.24 5.24 0 0 1 19.77 15a5.18 5.18 0 0 1-3.7 1.56zM16 7.77a3.49 3.49 0 0 0 0 7 3.62 3.62 0 0 0 2.52-1.09 3.33 3.33 0 0 0 1-2.35A3.49 3.49 0 0 0 16 7.77z"></path></svg><svg id="padlock" data-name="Layer 1" viewBox="0 0 44 44" width="44" height="44" y="152"><defs><style>.Graphic-Style-4{fill:url(#linear-gradient)}</style><linearGradient id="linear-gradient" x1="11.34" y1="21.56" x2="34.97" y2="21.56" gradientUnits="userSpaceOnUse"><stop offset="0" stop-color="#6ed344"></stop><stop offset="1" stop-color="#6fbb9b"></stop></linearGradient></defs><title>Icons</title><path class="Graphic-Style-4" d="M34.39 22.14a1.89 1.89 0 0 0-1.39-.58H17.9V15a5.25 5.25 0 0 1 5.25-5.25A5.25 5.25 0 0 1 28.4 15a1.33 1.33 0 0 0 1.31 1.31H31A1.33 1.33 0 0 0 32.34 15a8.85 8.85 0 0 0-2.7-6.49 8.85 8.85 0 0 0-6.49-2.7 8.85 8.85 0 0 0-6.49 2.7A8.85 8.85 0 0 0 14 15v6.56h-.69a2 2 0 0 0-2 2v11.78a2 2 0 0 0 2 2H33a2 2 0 0 0 2-2V23.53a1.89 1.89 0 0 0-.58-1.39zm0 0"></path></svg><svg id="phone" data-name="Layer 1" viewBox="0 0 26 26" width="26" height="26" y="196"><defs><style>.cls-1{fill:#939393}</style></defs><title>Icons</title><path class="cls-1" d="M24.25 19.92a2.74 2.74 0 0 0-1.25-.85l-.86-.48-1-.56-.86-.5-.4-.28a4.45 4.45 0 0 0-.57-.34 1 1 0 0 0-.46-.11 1.33 1.33 0 0 0-.8.46 7.82 7.82 0 0 0-.88 1 9.63 9.63 0 0 1-.85 1 1.22 1.22 0 0 1-.74.46 1.1 1.1 0 0 1-.36-.08l-.33-.14-.38-.22-.3-.18a16.8 16.8 0 0 1-3.76-2.79 16.8 16.8 0 0 1-2.79-3.76l-.18-.3c-.1-.25-.17-.34-.21-.42s-.08-.18-.14-.33a1.1 1.1 0 0 1-.08-.36 1.22 1.22 0 0 1 .46-.74 9.74 9.74 0 0 1 1-.85 7.85 7.85 0 0 0 1-.88 1.33 1.33 0 0 0 .49-.79 1 1 0 0 0-.11-.46 4.41 4.41 0 0 0-.39-.57l-.28-.4-.5-.85-.56-1-.48-.89a2.75 2.75 0 0 0-.85-1.21.9.9 0 0 0-.34 0 5.3 5.3 0 0 0-1.13.16 6.35 6.35 0 0 0-1.1.34 4.29 4.29 0 0 0-1.7 2 6.21 6.21 0 0 0-.82 3 6.15 6.15 0 0 0 .06.84 6.93 6.93 0 0 0 .2.92q.14.51.23.76l.33.89q.24.64.29.79A14.56 14.56 0 0 0 4.18 15a23.73 23.73 0 0 0 3.45 4.24 23.77 23.77 0 0 0 4.24 3.45 14.48 14.48 0 0 0 2.8 1.33l.79.29.89.33.76.23a7 7 0 0 0 .92.2 6.12 6.12 0 0 0 .84.06 6.21 6.21 0 0 0 3-.82 4.29 4.29 0 0 0 2-1.7 6.34 6.34 0 0 0 .34-1.1 5.3 5.3 0 0 0 .16-1.13.89.89 0 0 0 0-.34zm0 0"></path></svg><svg id="pin" data-name="Layer 1" viewBox="0 0 34 34" width="34" height="34" y="222"><defs><style>.Graphic-Style-4{fill:url(#linear-gradient)}</style><linearGradient id="linear-gradient" x1="2.65" y1="16.56" x2="30.09" y2="16.56" gradientUnits="userSpaceOnUse"><stop offset="0" stop-color="#6ed344"></stop><stop offset="1" stop-color="#6fbb9b"></stop></linearGradient></defs><title>Icons</title><path class="Graphic-Style-4" d="M16.37 2.84a13.72 13.72 0 1 0 13.72 13.72A13.72 13.72 0 0 0 16.37 2.84zM9.79 23.11L13 17.88a10.3 10.3 0 0 0 2 2zm12.86-8.55a1.51 1.51 0 0 1-1.58.16l-1.74 1.74c.87 1.42 1.08 2.8.4 3.49a1.54 1.54 0 0 1-1.13.41 5.38 5.38 0 0 1-3-1.24l-.07-.05-.22-.18-.09-.07-.22-.21-.08-.07-.28-.27-.31-.33-.18-.2-.15-.12-.22-.28c-1.21-1.66-1.61-3.34-.78-4.16a1.55 1.55 0 0 1 1.13-.41 4.76 4.76 0 0 1 2.36.81l1.74-1.74a1.51 1.51 0 0 1 .16-1.58c.65-.65 2.14-.21 3.32 1s1.63 2.68 1 3.33zm0 0"></path></svg><svg id="safe" data-name="Layer 1" viewBox="0 0 44 44" width="44" height="44" y="256"><defs><style>.cls-1{fill:url(#linear-gradient)}.cls-2{fill:url(#linear-gradient-6)}.cls-3{fill:url(#linear-gradient-8)}.cls-4{fill:url(#linear-gradient-9)}.Graphic-Style-4{fill:url(#linear-gradient-11)}</style><linearGradient id="linear-gradient" x1="5.5" y1="21.83" x2="35.37" y2="21.83" gradientTransform="translate(2)" gradientUnits="userSpaceOnUse"><stop offset="0" stop-color="#6ed344"></stop><stop offset="1" stop-color="#6fbb9b"></stop></linearGradient><linearGradient id="linear-gradient-6" x1="7.5" y1="20.95" x2="37.37" y2="20.95" xlink:href="#linear-gradient"></linearGradient><linearGradient id="linear-gradient-8" x1="7.5" y1="21.83" x2="37.37" y2="21.83" xlink:href="#linear-gradient"></linearGradient><linearGradient id="linear-gradient-9" x1="7.5" y1="21" x2="37.37" y2="21" xlink:href="#linear-gradient"></linearGradient><linearGradient id="linear-gradient-11" x1="7.5" y1="20.95" x2="11.06" y2="20.95" xlink:href="#linear-gradient"></linearGradient></defs><title>Icons</title><path class="cls-1" d="M7.5 16.58h3.56v8.75H7.5zM22.43 21.83a.88.88 0 1 0-.87-.83.88.88 0 0 0 .88.88zm0 0"></path><path class="cls-1" d="M7.5 14.83h3.56v-3.5h22.75v19.25H11.06v-3.5H7.5v7h5.31v1.75h1.75v-1.75h15.75v1.75h1.75v-1.75h5.31V7.83H7.5v7zm0 0"></path><path class="cls-1" d="M23.31 16.67v1.82a2.63 2.63 0 1 1-1.75 0v-1.82a4.38 4.38 0 1 0 1.75 0zm0 0"></path><path class="cls-1" d="M12.81 13.08v15.75h19.25V13.08H12.81zm9.63 14A6.13 6.13 0 1 1 28.56 21a6.13 6.13 0 0 1-6.13 6.12zm0 0"></path><path class="cls-2" d="M7.5 16.58h3.56v8.75H7.5zM22.43 21.83a.88.88 0 1 0-.87-.83.88.88 0 0 0 .88.88zm0 0"></path><path class="cls-3" d="M7.5 14.83h3.56v-3.5h22.75v19.25H11.06v-3.5H7.5v7h5.31v1.75h1.75v-1.75h15.75v1.75h1.75v-1.75h5.31V7.83H7.5v7zm0 0"></path><path class="cls-4" d="M23.31 16.67v1.82a2.63 2.63 0 1 1-1.75 0v-1.82a4.38 4.38 0 1 0 1.75 0zm0 0"></path><path class="cls-2" d="M12.81 13.08v15.75h19.25V13.08H12.81zm9.63 14A6.13 6.13 0 1 1 28.56 21a6.13 6.13 0 0 1-6.13 6.12zm0 0"></path><path class="Graphic-Style-4" d="M7.5 16.58h3.56v8.75H7.5zM22.43 21.83a.88.88 0 1 0-.87-.83.88.88 0 0 0 .88.88zm0 0"></path><path class="Graphic-Style-4" d="M7.5 14.83h3.56v-3.5h22.75v19.25H11.06v-3.5H7.5v7h5.31v1.75h1.75v-1.75h15.75v1.75h1.75v-1.75h5.31V7.83H7.5v7zm0 0"></path><path class="Graphic-Style-4" d="M23.31 16.67v1.82a2.63 2.63 0 1 1-1.75 0v-1.82a4.38 4.38 0 1 0 1.75 0zm0 0"></path><path class="Graphic-Style-4" d="M12.81 13.08v15.75h19.25V13.08H12.81zm9.63 14A6.13 6.13 0 1 1 28.56 21a6.13 6.13 0 0 1-6.13 6.12zm0 0"></path></svg><svg id="user" data-name="Layer 1" viewBox="0 0 26 26" width="26" height="26" y="300"><defs><style>.cls-1{fill:#939393}</style></defs><title>Icons</title><path class="cls-1" d="M13.4 24.33a11.71 11.71 0 0 1-9.89-5.48.83.83 0 0 1-.06-.94 7.24 7.24 0 0 1 5.5-4 1.22 1.22 0 0 1 .8.2A6.53 6.53 0 0 0 13 15.25a5.86 5.86 0 0 0 3.79-1 1.86 1.86 0 0 1 1.62-.25 7.36 7.36 0 0 1 5 4 .63.63 0 0 1 0 .69 11.59 11.59 0 0 1-7.74 5.4c-.29.06-.59.12-.89.15l-1.38.09zM13.16 13.43a5.87 5.87 0 1 1 6.13-5.66 5.85 5.85 0 0 1-6.13 5.66z"></path></svg><svg data-name="Слой 1" viewBox="0 0 32 32" width="32" height="32" id="watch" y="326"><title>BI_054_clock-512</title><path d="M0 16.94v-1.87a2.27 2.27 0 0 0 .06-.25 14.76 14.76 0 0 1 .51-3A16 16 0 0 1 13.31.25c.58-.11 1.17-.17 1.76-.25h1.87l.24.06a14.48 14.48 0 0 1 4.81 1.11 15.8 15.8 0 0 1 9.76 12.08c.12.6.17 1.21.25 1.82v1.87a2 2 0 0 0-.05.24 14.68 14.68 0 0 1-1.13 4.84 15.8 15.8 0 0 1-12 9.73c-.61.12-1.23.17-1.85.25h-1.9l-.24-.06a14.33 14.33 0 0 1-4.11-.85A15.78 15.78 0 0 1 .26 18.76c-.12-.6-.17-1.21-.26-1.82zM16 29.5A13.5 13.5 0 1 0 2.5 15.94 13.49 13.49 0 0 0 16.02 29.5z"></path><path d="M14.75 11.12V6.28a1.24 1.24 0 0 1 1.69-1.19 1.25 1.25 0 0 1 .8 1.25v8.88a.62.62 0 0 0 .19.46l4.51 4.46a1.29 1.29 0 0 1 .44 1.23 1.25 1.25 0 0 1-2.12.63c-.55-.54-1.09-1.09-1.64-1.64l-3.34-3.33a1.59 1.59 0 0 1-.5-1.22c-.02-1.57-.03-3.13-.03-4.69z"></path></svg><svg id="wrench" data-name="Layer 1" viewBox="0 0 44 44" width="44" height="44" y="358"><defs><style>.Graphic-Style-4{fill:url(#linear-gradient)}</style><linearGradient id="linear-gradient" x1="10" y1="21.87" x2="34.84" y2="21.87" gradientUnits="userSpaceOnUse"><stop offset="0" stop-color="#6ed344"></stop><stop offset="1" stop-color="#6fbb9b"></stop></linearGradient></defs><title>Icons</title><path class="Graphic-Style-4" d="M34.44 14.7l-4.09 4.1-3.58-1.28-1.28-3.58 4.09-4.09a7.71 7.71 0 0 0-9.81 9.61 3.68 3.68 0 0 0-.32.28l-8.4 8.4a3.6 3.6 0 0 0 5.09 5.09l8.4-8.4a3.66 3.66 0 0 0 .28-.32 7.71 7.71 0 0 0 9.61-9.81zm0 0"></path></svg><svg id="wrench_door" data-name="Layer 1" viewBox="0 0 44 44" width="44" height="44" y="402"><defs><style>.Graphic-Style-4{fill:url(#linear-gradient)}</style><linearGradient id="linear-gradient" x1="21.65" y1="21.73" x2="36.18" y2="21.73" gradientUnits="userSpaceOnUse"><stop offset="0" stop-color="#6ed344"></stop><stop offset="1" stop-color="#6fbb9b"></stop></linearGradient></defs><title>Icons</title><path class="Graphic-Style-4" d="M21.65 32.8h14.53V10.65H21.65V32.8zm.94-12.54a.47.47 0 0 1 .94 0v3a.47.47 0 1 1-.94 0v-3zm0 0"></path><path class="Graphic-Style-4" d="M41.53 34.8h-3.41V8.66h-18.4V34.8h-3.41a.47.47 0 0 0 0 .94h25.22a.47.47 0 0 0 0-.94zm-4.41-1.46a.47.47 0 0 1-.47.47H21.18a.47.47 0 0 1-.47-.47V10.19a.47.47 0 0 1 .47-.47h15.47a.47.47 0 0 1 .47.47v23.14zm0 0M13.4 11.05v4.26l-2.53 1.2-2.53-1.2v-4.26a5.67 5.67 0 0 0-.1 10.1 2.71 2.71 0 0 0 0 .32v8.74a2.65 2.65 0 0 0 5.3 0v-8.74a2.69 2.69 0 0 0 0-.32 5.67 5.67 0 0 0-.1-10.1zm0 0"></path></svg></svg>